<svg width="128" height="27" viewBox="0 0 128 27" fill="none" xmlns="http://www.w3.org/2000/svg">
<path d="M102.541 17.3119H104.614V20.8561H102.541V17.3119ZM103.653 14.1183C101.672 14.1183 97.4938 10.7632 97.4938 10.7632V13.2298C97.4938 13.2298 101.229 16.3201 103.653 16.3201C106.09 16.3201 109.686 13.2412 109.686 13.2412V10.7373C109.686 10.7373 105.629 14.1183 103.653 14.1183ZM45.211 16.816L53.9875 20.8561V18.5412L48.0667 16.0309L53.9875 13.5352V11.2219L45.211 15.22V16.816ZM63.7755 11.2219H61.437L55.7331 20.8545H58.1581L62.6017 13.4932L67.0453 20.8545H69.4703L63.7755 11.2219ZM92.5331 11.2219H90.1945L84.4891 20.8577H86.9141L91.3592 13.4932L95.8044 20.8577H98.2294L92.5331 11.2219ZM83.6277 11.2219L79.8438 18.2392L78.1877 15.0988L80.3155 11.2219H77.9208L77.0214 12.889L76.1433 11.2219H73.6546L75.8021 15.1505L74.1354 18.2392L70.4364 11.2219H67.9477L73.2163 20.8561H75.0271L76.979 17.3006L78.9247 20.8561H80.734L86.0224 11.2219H83.6277ZM14.5122 20.8561H25.8154V11.2219H14.5122V20.8561ZM23.7467 13.4285L23.7437 18.6478H16.5869V13.4188L23.7467 13.4285ZM28.9608 20.8496H39.5071V18.643H31.0355V13.4221H39.5071V11.2171H28.9608V20.8496ZM42.2066 11.2219V20.8561H44.2813L44.2783 11.2219H42.2066ZM7.87261 17.2715C7.87261 17.2715 7.97422 19.2843 9.68796 20.8528H12.5346C12.5346 20.8528 10.4205 19.5169 9.99886 17.2715H11.2819V11.2219H0V20.8561H2.07318V17.2715H7.87261ZM2.07318 13.4285L9.23147 13.4269V15.3072H2.07318V13.4285Z" fill="#CDD0D6"/>
<path d="M127.915 0L121.344 4.78639V6.45346L127.915 11.2221V8.40969L123.983 5.60377L127.915 2.81238V0ZM113.832 2.81238L117.766 5.60377L113.832 8.40969V11.2221L120.405 6.45346V4.78639L113.832 0V2.81238Z" fill="#CDD0D6"/>
</svg>
