<svg width="88" height="27" viewBox="0 0 88 27" fill="none" xmlns="http://www.w3.org/2000/svg">
<g clip-path="url(#clip0_5904_28050)">
<path fill-rule="evenodd" clip-rule="evenodd" d="M5.02054 21.3237C0.211186 16.16 0.892077 7.25093 6.44327 2.9537C8.76392 1.11577 11.6449 0.262456 14.5248 0.56002L13.0069 2.82089C7.00226 2.61852 2.29846 8.52682 3.10869 14.7624C4.10178 23.3758 13.6729 27.477 20.2142 22.5252C15.7988 26.2802 8.88586 25.7395 5.02054 21.3237ZM15.4822 9.03745V18.0493H17.9381V15.3869H22.3476V13.2794H17.8698V11.1212H22.6449V8.36077C22.4041 8.50465 21.3976 9.03745 19.743 9.03745H15.4822ZM32.9862 17.1338C33.6522 17.8911 34.8296 18.2595 36.5854 18.2595C38.1374 18.2595 40.7436 17.88 40.7465 15.3425C40.7465 14.2895 40.2886 13.6033 39.2599 13.129C39.2078 13.1006 38.97 13.0041 38.9105 12.9851C38.5359 12.8634 37.7836 12.6326 36.9778 12.4571L36.4501 12.3464L36.4497 12.3463C35.5668 12.1646 34.9292 12.0333 34.9292 11.4705C34.9292 11.0057 35.4109 10.7701 36.3594 10.7701C37.2529 10.7701 38.7782 11.3203 39.0755 12.7954L39.0787 12.8107L39.084 12.8341C39.0916 12.8671 39.0993 12.9004 39.0993 12.9346L40.476 10.8634C40.2217 10.231 39.3164 8.80807 36.462 8.80807C33.8856 8.80807 32.3989 9.82625 32.3989 11.6002C32.3989 13.5353 34.006 13.9986 35.79 14.3353C35.9083 14.3584 36.0324 14.3795 36.1593 14.4009L36.1593 14.4009L36.1593 14.4009L36.1594 14.401L36.1594 14.401L36.1594 14.401L36.1595 14.401L36.1595 14.401L36.1595 14.401L36.1596 14.401L36.1596 14.401L36.2479 14.416C37.1399 14.5646 38.1523 14.7338 38.1523 15.4389C38.1523 16.0508 37.6825 16.3116 36.5854 16.3116C35.7261 16.3116 35.2533 16.182 34.9827 15.8658C34.7672 15.6176 34.6824 15.2539 34.7166 14.7243H32.3291C32.2666 15.7709 32.4822 16.5583 32.9862 17.1338ZM57.0359 18.0492L53.2479 12.5631V12.6848C53.2761 13.1876 53.2895 13.6919 53.2895 14.2658V18.0492H50.9748V9.03739H53.4069L57.1935 14.4556V14.3386C57.1667 13.7615 57.1518 13.2145 57.1518 12.7101V9.02474H59.4666V18.0366L57.0359 18.0492ZM47.4752 16.7228L47.9777 18.0493H50.4961L47.0098 9.03743H44.2878L40.8134 18.0493H43.2382L43.7258 16.7228H47.4752ZM46.7616 14.7671H44.4513L45.5841 11.6177L46.7616 14.7671ZM67.001 18.0493L66.4985 16.7228H62.7491L62.2734 18.0493H59.8234L63.3111 9.03743H66.0332L69.5194 18.0493H67.001ZM63.4553 14.7671H65.7804L64.603 11.6177L63.4553 14.7671ZM84.9807 16.7228L85.4832 18.0493H88.0001L84.5139 9.03743H81.7769L78.3041 18.0493H80.7258L81.2298 16.7228H84.9807ZM84.2611 14.7671H81.9226L83.0837 11.605L84.2611 14.7671ZM74.0953 14.9125L75.6965 18.0493H78.2104L76.6033 14.9521H74.4625V14.8825H74.4774C75.0275 14.8082 77.7733 14.3212 77.7733 11.9023C77.7733 9.9734 76.4918 9.03743 73.8575 9.03743H69.1968C69.3469 9.25562 69.8732 10.1442 69.8732 11.5671V18.0493H72.2519V14.9125H74.0953ZM73.575 13.1086H72.2519V10.9726H73.6701C74.0639 10.9526 74.4561 11.0385 74.8104 11.2224C74.9495 11.2993 75.0657 11.4159 75.1458 11.5592C75.2259 11.7025 75.2668 11.8668 75.2638 12.0335C75.2644 12.1332 75.2529 12.2325 75.2297 12.3291C75.0944 12.8588 74.5592 13.1086 73.575 13.1086ZM29.769 18.0493L29.2531 16.7228H25.5172L25.028 18.0493H22.578L26.0643 9.03743H28.8012L32.274 18.0493H29.769ZM26.2233 14.7671H28.5336L27.3547 11.6177L26.2233 14.7671ZM9.13563 8.61849C5.17962 11.7078 5.64941 17.945 9.52513 20.9062C9.95903 21.2556 10.4253 21.557 10.9166 21.8058C9.74785 21.3439 8.69039 20.6111 7.82099 19.6605C6.95159 18.71 6.29206 17.5655 5.89024 16.3102C5.14691 13.9971 5.43087 11.3015 6.65885 9.2762C6.88482 9.13707 7.76641 8.68489 9.13563 8.61849ZM7.92697 16.9205C7.66086 15.9039 7.59991 14.5031 7.98346 13.3094H7.05133C6.83873 15.262 7.4334 17.4802 8.62273 18.7687C8.31405 18.1885 8.08004 17.5669 7.92697 16.9205ZM12.7036 3.27609C7.99832 3.31878 3.96946 7.47688 3.7093 12.4461C3.10423 19.0405 9.22333 24.7354 15.2859 23.4674C9.17575 24.3717 3.29898 17.9338 5.13649 11.4832C5.90212 8.47925 8.30754 6.0334 11.1991 5.5338L12.7036 3.27609ZM1.17751 12.9694C1.26523 25.7046 16.5362 30.7117 23.4566 20.4002L23.5607 20.6627C18.7424 27.733 9.14305 28.5615 3.51009 22.1093C-2.10355 15.7852 -0.787854 5.32037 6.05079 0.607324V2.6927C3.01205 5.05634 1.17751 8.96938 1.17751 12.9694Z" fill="#CDD0D6"/>
</g>
<defs>
<clipPath id="clip0_5904_28050">
<rect width="88" height="26" fill="white" transform="translate(0 0.5)"/>
</clipPath>
</defs>
</svg>
