<svg width="631" height="248" viewBox="0 0 631 248" fill="none" xmlns="http://www.w3.org/2000/svg">
<g clip-path="url(#clip0_13186_15118)">
<path d="M168.916 73.75H200.716C230.146 73.75 244.356 91.46 244.356 116.77C244.356 142.08 230.146 159.79 200.716 159.79H168.916V73.75ZM188.616 141.46H201.706C217.166 141.46 223.526 131.11 223.526 116.77C223.526 102.43 217.166 92.08 201.706 92.08H188.616V141.46Z" fill="white"/>
<path d="M256.436 73.75H276.136V159.79H256.436V73.75Z" fill="white"/>
<path d="M327.636 113.78H373.526V159.79H357.566V147.2H355.326C350.216 155.8 341.486 162.04 328.386 162.04C305.816 162.04 288.236 142.84 288.236 116.77C288.236 90.7 306.446 71.5 332.506 71.5C353.576 71.5 367.176 83.47 372.156 97.56V104.04H352.456C349.836 95.81 342.976 89.33 332.506 89.33C318.666 89.33 308.816 101.18 308.816 116.76C308.816 132.34 318.666 144.82 332.886 144.82C343.116 144.82 350.846 138.58 353.966 129.86H327.656V113.77L327.636 113.78Z" fill="white"/>
<path d="M387.727 73.75H407.427V159.79H387.727V73.75Z" fill="white"/>
<path d="M486.616 73.75V92.08H461.676V159.79H441.846V92.08H416.906V73.75H486.616Z" fill="white"/>
<path d="M536.987 73.75L563.677 153.81V159.8H544.347L539.237 142.97H505.947L500.837 159.8H481.637V153.81L508.577 73.75H537.007H536.987ZM511.297 125.5H533.867L528.007 106.3C526.257 100.06 524.887 95.08 523.897 88.34H521.277C520.407 95.07 519.037 100.06 517.167 106.17L511.307 125.5H511.297Z" fill="white"/>
<path d="M573.756 73.75H593.456V141.46H630.866V159.79H573.756V73.75Z" fill="white"/>
<path d="M96.5859 194.566C57.2959 166.326 52.5259 106.856 92.6359 77.4062C78.7559 78.0462 69.8159 82.3463 67.5259 83.6763C55.0659 102.986 52.1859 128.696 59.7359 150.686C67.6459 174.716 87.0359 194.376 110.696 203.086C105.736 200.706 101.656 198.306 96.5859 194.576V194.566Z" fill="white"/>
<path d="M80.3762 156.573C77.6762 146.873 77.0662 133.523 80.9562 122.133H71.4962C69.2962 140.753 75.4262 161.913 87.4562 174.193C87.4562 174.193 83.1962 167.303 80.3762 156.573Z" fill="white"/>
<path d="M65.3362 23.4001C9.07618 64.3701 2.13617 149.32 50.9062 198.55C90.0862 240.65 160.206 245.82 204.976 210.01C138.646 257.23 41.5962 218.12 31.5162 135.99C23.3062 76.5401 70.9962 20.2001 131.886 22.1301L147.286 0.580126C118.266 -2.35987 88.6462 5.97013 65.3362 23.4001Z" fill="white"/>
<path d="M128.816 26.4766C81.1058 26.8866 40.2458 66.5266 37.6158 113.867C31.4658 176.747 93.5158 231.047 155.006 218.967C93.0458 227.587 33.4458 166.267 52.0858 104.697C59.8358 76.0965 84.2358 52.7466 113.546 47.9966L128.806 26.4766H128.816Z" fill="white"/>
<path d="M237.856 189.753C167.686 288.073 12.8361 240.323 11.9461 118.893C11.9761 80.7534 30.5461 43.4534 61.3561 20.9234V1.02344C-7.98387 45.9634 -21.3239 145.763 35.5961 206.123C92.7061 267.633 190.046 259.733 238.896 192.323L237.846 189.753H237.856Z" fill="white"/>
<path d="M168.916 49.1834V14.6134H186.286C193.026 14.6134 197.136 12.5734 198.116 12.0234V22.6534L178.656 22.6334V30.9234H196.906V39.0034H178.936V49.1934H168.926L168.916 49.1834Z" fill="white"/>
<path d="M254.937 50.0134C247.777 50.0134 242.987 48.6034 240.267 45.6934C238.207 43.4934 237.337 40.4734 237.587 36.4534H247.327C247.187 38.4834 247.527 39.8834 248.407 40.8334C249.507 42.0334 251.467 42.5434 254.937 42.5434C259.417 42.5434 261.327 41.5434 261.327 39.1934C261.327 36.4934 257.207 35.8434 253.567 35.2734C252.927 35.1734 252.297 35.0734 251.697 34.9634C244.407 33.6734 237.867 31.8934 237.867 24.4734C237.867 17.6734 243.907 13.7734 254.437 13.7734C266.067 13.7734 269.767 19.2434 270.817 21.6434L265.157 29.5934C265.127 29.4134 265.097 29.2334 265.057 29.0634C263.847 23.4134 257.627 21.3034 253.987 21.3034C250.117 21.3034 248.157 22.2034 248.157 23.9834C248.157 26.1434 250.757 26.6434 254.357 27.3434C255.067 27.4834 255.777 27.6134 256.507 27.7734C259.797 28.4434 262.867 29.3234 264.407 29.7934C264.647 29.8634 265.587 30.2434 265.837 30.3434C270.027 32.1834 271.897 34.7934 271.897 38.8134C271.897 48.5634 261.277 50.0134 254.947 50.0134H254.937Z" fill="white"/>
<path d="M338.315 49.1872L322.865 28.1772L322.895 28.6372C323.005 30.5672 323.065 32.4972 323.065 34.7172V49.1872H313.605V14.6172H323.525L338.965 35.3872L338.945 34.9372C338.835 32.7272 338.775 30.6272 338.775 28.6972V14.6172H348.235V49.1872H338.315Z" fill="white"/>
<path d="M301.386 49.1872L299.336 44.0972H284.046L282.056 49.1872H272.176L286.336 14.6172H297.436L311.646 49.1872H301.376H301.386ZM286.986 36.6272H296.406L291.606 24.5472L286.986 36.6272Z" fill="white"/>
<path d="M378.936 49.1872L376.886 44.0972H361.596L359.656 49.1872H349.666L363.876 14.6172H374.976L389.186 49.1872H378.916H378.936ZM364.486 36.6272H373.956L369.166 24.5572L364.486 36.6272Z" fill="white"/>
<path d="M454.277 49.1816L452.227 44.0916H436.937L434.887 49.1816H425.007L439.167 14.6116H450.317L464.527 49.1816H454.257H454.277ZM439.767 36.6216H449.297L444.507 24.4916L439.767 36.6216ZM414.377 49.1816L407.847 37.1816H400.327V49.1816H390.647V24.3216C390.647 18.8516 388.497 15.4616 387.887 14.6016H406.887C417.627 14.6016 422.847 18.1916 422.847 25.5816C422.847 34.8616 411.657 36.7216 409.417 37.0016H409.357L409.377 37.2716H418.097L424.637 49.1616H414.387L414.377 49.1816ZM400.337 30.2616H405.727C409.737 30.2616 411.927 29.3016 412.477 27.2716C412.567 26.9216 412.617 26.5516 412.617 26.1416C412.617 25.4716 412.407 24.7316 412.077 24.2216C411.767 23.7516 411.327 23.3516 410.777 23.0416C409.677 22.4116 408.107 22.0816 406.127 22.0816H400.347V30.2616H400.337Z" fill="white"/>
<path d="M227.156 49.1872L225.056 44.0972H209.826L207.836 49.1872H197.846L212.056 14.6172H223.206L237.366 49.1872H227.156ZM212.706 36.6272H222.126L217.326 24.5472L212.706 36.6272Z" fill="white"/>
</g>
<defs>
<linearGradient id="paint0_linear_13186_15118" x1="57.4459" y1="235.536" x2="149.326" y2="-42.5138" gradientUnits="userSpaceOnUse">
<stop stop-color="#828487"/>
<stop offset="0.26" stop-color="#C0C2C3"/>
<stop offset="0.32" stop-color="#E1E2E2"/>
<stop offset="0.37" stop-color="white"/>
<stop offset="0.41" stop-color="#B2B2B2"/>
<stop offset="0.45" stop-color="#737373"/>
<stop offset="0.73" stop-color="#B2B2B2"/>
<stop offset="1" stop-color="#96989B"/>
</linearGradient>
<linearGradient id="paint1_linear_13186_15118" x1="51.2762" y1="233.503" x2="143.156" y2="-44.5472" gradientUnits="userSpaceOnUse">
<stop stop-color="#828487"/>
<stop offset="0.26" stop-color="#C0C2C3"/>
<stop offset="0.32" stop-color="#E1E2E2"/>
<stop offset="0.37" stop-color="white"/>
<stop offset="0.41" stop-color="#B2B2B2"/>
<stop offset="0.45" stop-color="#737373"/>
<stop offset="0.73" stop-color="#B2B2B2"/>
<stop offset="1" stop-color="#96989B"/>
</linearGradient>
<linearGradient id="paint2_linear_13186_15118" x1="82.0762" y1="243.68" x2="173.956" y2="-34.3699" gradientUnits="userSpaceOnUse">
<stop stop-color="#828487"/>
<stop offset="0.26" stop-color="#C0C2C3"/>
<stop offset="0.32" stop-color="#E1E2E2"/>
<stop offset="0.37" stop-color="white"/>
<stop offset="0.41" stop-color="#B2B2B2"/>
<stop offset="0.45" stop-color="#737373"/>
<stop offset="0.73" stop-color="#B2B2B2"/>
<stop offset="1" stop-color="#96989B"/>
</linearGradient>
<linearGradient id="paint3_linear_13186_15118" x1="70.4458" y1="239.837" x2="162.326" y2="-38.2134" gradientUnits="userSpaceOnUse">
<stop stop-color="#828487"/>
<stop offset="0.26" stop-color="#C0C2C3"/>
<stop offset="0.32" stop-color="#E1E2E2"/>
<stop offset="0.37" stop-color="white"/>
<stop offset="0.41" stop-color="#B2B2B2"/>
<stop offset="0.45" stop-color="#737373"/>
<stop offset="0.73" stop-color="#B2B2B2"/>
<stop offset="1" stop-color="#96989B"/>
</linearGradient>
<linearGradient id="paint4_linear_13186_15118" x1="85.6961" y1="244.873" x2="177.566" y2="-33.1666" gradientUnits="userSpaceOnUse">
<stop stop-color="#828487"/>
<stop offset="0.26" stop-color="#C0C2C3"/>
<stop offset="0.32" stop-color="#E1E2E2"/>
<stop offset="0.37" stop-color="white"/>
<stop offset="0.41" stop-color="#B2B2B2"/>
<stop offset="0.45" stop-color="#737373"/>
<stop offset="0.73" stop-color="#B2B2B2"/>
<stop offset="1" stop-color="#96989B"/>
</linearGradient>
<linearGradient id="paint5_linear_13186_15118" x1="108.376" y1="252.373" x2="200.246" y2="-25.6765" gradientUnits="userSpaceOnUse">
<stop stop-color="#828487"/>
<stop offset="0.26" stop-color="#C0C2C3"/>
<stop offset="0.34" stop-color="#9FA0A1"/>
<stop offset="0.45" stop-color="#737373"/>
<stop offset="0.49" stop-color="white"/>
<stop offset="0.73" stop-color="#B2B2B2"/>
<stop offset="1" stop-color="#96989B"/>
</linearGradient>
<linearGradient id="paint6_linear_13186_15118" x1="174.737" y1="274.303" x2="266.617" y2="-3.74654" gradientUnits="userSpaceOnUse">
<stop stop-color="#828487"/>
<stop offset="0.26" stop-color="#C0C2C3"/>
<stop offset="0.32" stop-color="#E1E2E2"/>
<stop offset="0.37" stop-color="white"/>
<stop offset="0.41" stop-color="#B2B2B2"/>
<stop offset="0.45" stop-color="#737373"/>
<stop offset="0.73" stop-color="#B2B2B2"/>
<stop offset="1" stop-color="#96989B"/>
</linearGradient>
<linearGradient id="paint7_linear_13186_15118" x1="243.326" y1="296.967" x2="335.206" y2="18.9172" gradientUnits="userSpaceOnUse">
<stop stop-color="#828487"/>
<stop offset="0.26" stop-color="#C0C2C3"/>
<stop offset="0.32" stop-color="#E1E2E2"/>
<stop offset="0.37" stop-color="white"/>
<stop offset="0.41" stop-color="#B2B2B2"/>
<stop offset="0.45" stop-color="#737373"/>
<stop offset="0.73" stop-color="#B2B2B2"/>
<stop offset="1" stop-color="#96989B"/>
</linearGradient>
<linearGradient id="paint8_linear_13186_15118" x1="213.316" y1="287.057" x2="305.196" y2="9.0072" gradientUnits="userSpaceOnUse">
<stop stop-color="#828487"/>
<stop offset="0.26" stop-color="#C0C2C3"/>
<stop offset="0.32" stop-color="#E1E2E2"/>
<stop offset="0.37" stop-color="white"/>
<stop offset="0.41" stop-color="#B2B2B2"/>
<stop offset="0.45" stop-color="#737373"/>
<stop offset="0.73" stop-color="#B2B2B2"/>
<stop offset="1" stop-color="#96989B"/>
</linearGradient>
<linearGradient id="paint9_linear_13186_15118" x1="283.206" y1="310.147" x2="375.086" y2="32.0972" gradientUnits="userSpaceOnUse">
<stop stop-color="#828487"/>
<stop offset="0.26" stop-color="#C0C2C3"/>
<stop offset="0.32" stop-color="#E1E2E2"/>
<stop offset="0.37" stop-color="white"/>
<stop offset="0.41" stop-color="#B2B2B2"/>
<stop offset="0.45" stop-color="#737373"/>
<stop offset="0.73" stop-color="#B2B2B2"/>
<stop offset="1" stop-color="#96989B"/>
</linearGradient>
<linearGradient id="paint10_linear_13186_15118" x1="329.247" y1="325.352" x2="421.127" y2="47.3016" gradientUnits="userSpaceOnUse">
<stop stop-color="#828487"/>
<stop offset="0.26" stop-color="#C0C2C3"/>
<stop offset="0.32" stop-color="#E1E2E2"/>
<stop offset="0.37" stop-color="white"/>
<stop offset="0.41" stop-color="#B2B2B2"/>
<stop offset="0.45" stop-color="#737373"/>
<stop offset="0.73" stop-color="#B2B2B2"/>
<stop offset="1" stop-color="#96989B"/>
</linearGradient>
<linearGradient id="paint11_linear_13186_15118" x1="146.316" y1="264.917" x2="238.196" y2="-13.1328" gradientUnits="userSpaceOnUse">
<stop stop-color="#828487"/>
<stop offset="0.26" stop-color="#C0C2C3"/>
<stop offset="0.32" stop-color="#E1E2E2"/>
<stop offset="0.37" stop-color="white"/>
<stop offset="0.41" stop-color="#B2B2B2"/>
<stop offset="0.45" stop-color="#737373"/>
<stop offset="0.73" stop-color="#B2B2B2"/>
<stop offset="1" stop-color="#96989B"/>
</linearGradient>
<clipPath id="clip0_13186_15118">
<rect width="631" height="248" fill="white"/>
</clipPath>
</defs>
</svg>
