<svg width="234" height="41" viewBox="0 0 234 41" fill="none" xmlns="http://www.w3.org/2000/svg">
<path fill-rule="evenodd" clip-rule="evenodd" d="M11.5984 2.00002V30.9282L-9.05991e-05 30.9282V9.01291L11.5984 2.00002Z" fill="white"/>
<path fill-rule="evenodd" clip-rule="evenodd" d="M13.9167 37.9995L13.9167 8.896H25.5152V9.22839V30.9866L13.9167 37.9995Z" fill="white"/>
<rect x="38.3074" y="12.2891" width="3.71129" height="18.7" fill="white"/>
<rect x="38.3074" y="12.2891" width="3.71129" height="18.7" fill="white"/>
<path d="M63.0345 21.5796C63.0345 26.7455 58.849 30.9332 53.686 30.9332C48.5229 30.9332 44.3374 26.7455 44.3374 21.5796C44.3374 16.4138 48.5229 12.2261 53.686 12.2261C58.849 12.2261 63.0345 16.4138 63.0345 21.5796ZM48.0768 21.5796C48.0768 24.6791 50.5881 27.1918 53.686 27.1918C56.7838 27.1918 59.2951 24.6791 59.2951 21.5796C59.2951 18.4801 56.7838 15.9675 53.686 15.9675C50.5881 15.9675 48.0768 18.4801 48.0768 21.5796Z" fill="white"/>
<path d="M59.293 6.81201L63.0324 6.812V31.0371H59.293V6.81201Z" fill="white"/>
<path d="M65.3071 6.71191H69.0466V30.937H65.3071L65.3071 6.71191Z" fill="white"/>
<path d="M89.8892 23.0935C90.2445 20.8008 89.7469 18.4566 88.492 16.511C87.2371 14.5654 85.3133 13.1554 83.0899 12.5517C80.8665 11.948 78.5002 12.1931 76.4451 13.2401C74.3901 14.287 72.7913 16.062 71.9554 18.2242C71.1196 20.3865 71.1058 22.7836 71.9165 24.9555C72.7273 27.1275 74.3055 28.9211 76.3483 29.9921C78.3911 31.0631 80.7544 31.336 82.9846 30.7584C85.2149 30.1809 87.1549 28.7936 88.4322 26.8628L85.3232 24.7741C84.5568 25.9326 83.3928 26.765 82.0547 27.1115C80.7165 27.458 79.2985 27.2943 78.0729 26.6517C76.8472 26.0091 75.9003 24.9329 75.4138 23.6298C74.9273 22.3266 74.9357 20.8883 75.4371 19.591C75.9386 18.2936 76.898 17.2287 78.131 16.6005C79.364 15.9723 80.7838 15.8252 82.1178 16.1874C83.4519 16.5497 84.6061 17.3957 85.3591 18.563C86.112 19.7304 86.4106 21.1369 86.1974 22.5126L89.8892 23.0935Z" fill="white"/>
<path d="M73.116 19.8306H89.6429L89.8762 23.0891H73.116V19.8306Z" fill="white"/>
<path d="M124.449 17.1895V28H122.154V17.1895H124.449ZM123.316 13.0488C123.668 13.0488 123.97 13.1432 124.224 13.332C124.485 13.5208 124.615 13.8464 124.615 14.3086C124.615 14.7643 124.485 15.0898 124.224 15.2852C123.97 15.474 123.668 15.5684 123.316 15.5684C122.951 15.5684 122.642 15.474 122.388 15.2852C122.141 15.0898 122.017 14.7643 122.017 14.3086C122.017 13.8464 122.141 13.5208 122.388 13.332C122.642 13.1432 122.951 13.0488 123.316 13.0488ZM132.975 16.9844C134.192 16.9844 135.139 17.3001 135.816 17.9316C136.5 18.5566 136.842 19.5625 136.842 20.9492V28H134.547V21.3789C134.547 20.5391 134.374 19.9108 134.029 19.4941C133.684 19.071 133.15 18.8594 132.428 18.8594C131.38 18.8594 130.65 19.1816 130.24 19.8262C129.837 20.4707 129.635 21.4049 129.635 22.6289V28H127.34V17.1895H129.127L129.449 18.6543H129.576C129.811 18.2767 130.1 17.9674 130.445 17.7266C130.797 17.4792 131.188 17.2936 131.617 17.1699C132.053 17.0462 132.506 16.9844 132.975 16.9844ZM146.92 24.9141C146.92 25.6237 146.748 26.2227 146.403 26.7109C146.058 27.1992 145.553 27.5703 144.889 27.8242C144.232 28.0716 143.424 28.1953 142.467 28.1953C141.712 28.1953 141.061 28.14 140.514 28.0293C139.974 27.9251 139.463 27.7624 138.981 27.541V25.5586C139.495 25.7995 140.071 26.0078 140.709 26.1836C141.354 26.3594 141.963 26.4473 142.536 26.4473C143.291 26.4473 143.834 26.3301 144.166 26.0957C144.498 25.8548 144.664 25.5358 144.664 25.1387C144.664 24.9043 144.596 24.696 144.459 24.5137C144.329 24.3249 144.082 24.1328 143.717 23.9375C143.359 23.7357 142.832 23.4948 142.135 23.2148C141.452 22.9414 140.875 22.668 140.407 22.3945C139.938 22.1211 139.583 21.7923 139.342 21.4082C139.101 21.0176 138.981 20.5195 138.981 19.9141C138.981 18.957 139.358 18.2311 140.114 17.7363C140.875 17.235 141.881 16.9844 143.131 16.9844C143.795 16.9844 144.42 17.0527 145.006 17.1895C145.599 17.3197 146.178 17.5117 146.745 17.7656L146.022 19.4941C145.534 19.2793 145.042 19.1035 144.547 18.9668C144.059 18.8236 143.561 18.752 143.053 18.752C142.461 18.752 142.008 18.8431 141.696 19.0254C141.39 19.2077 141.237 19.4681 141.237 19.8066C141.237 20.0605 141.312 20.2754 141.461 20.4512C141.611 20.627 141.868 20.8027 142.233 20.9785C142.604 21.1543 143.118 21.3724 143.776 21.6328C144.42 21.8802 144.977 22.1406 145.446 22.4141C145.921 22.681 146.286 23.0098 146.539 23.4004C146.793 23.791 146.92 24.2956 146.92 24.9141ZM153.024 26.3398C153.324 26.3398 153.62 26.3138 153.913 26.2617C154.206 26.2031 154.473 26.1348 154.714 26.0566V27.7949C154.46 27.9056 154.131 28 153.727 28.0781C153.324 28.1562 152.904 28.1953 152.468 28.1953C151.856 28.1953 151.305 28.0944 150.817 27.8926C150.329 27.6842 149.942 27.3294 149.655 26.8281C149.369 26.3268 149.225 25.6335 149.225 24.748V18.9375H147.751V17.9121L149.333 17.1016L150.085 14.7871H151.53V17.1895H154.626V18.9375H151.53V24.7188C151.53 25.2656 151.667 25.6725 151.94 25.9395C152.214 26.2064 152.575 26.3398 153.024 26.3398ZM158.806 17.1895V28H156.511V17.1895H158.806ZM157.673 13.0488C158.025 13.0488 158.327 13.1432 158.581 13.332C158.842 13.5208 158.972 13.8464 158.972 14.3086C158.972 14.7643 158.842 15.0898 158.581 15.2852C158.327 15.474 158.025 15.5684 157.673 15.5684C157.308 15.5684 156.999 15.474 156.745 15.2852C156.498 15.0898 156.374 14.7643 156.374 14.3086C156.374 13.8464 156.498 13.5208 156.745 13.332C156.999 13.1432 157.308 13.0488 157.673 13.0488ZM165.72 26.3398C166.02 26.3398 166.316 26.3138 166.609 26.2617C166.902 26.2031 167.169 26.1348 167.41 26.0566V27.7949C167.156 27.9056 166.827 28 166.423 28.0781C166.02 28.1562 165.6 28.1953 165.164 28.1953C164.552 28.1953 164.002 28.0944 163.513 27.8926C163.025 27.6842 162.638 27.3294 162.351 26.8281C162.065 26.3268 161.921 25.6335 161.921 24.748V18.9375H160.447V17.9121L162.029 17.1016L162.781 14.7871H164.226V17.1895H167.322V18.9375H164.226V24.7188C164.226 25.2656 164.363 25.6725 164.636 25.9395C164.91 26.2064 165.271 26.3398 165.72 26.3398ZM178.631 17.1895V28H176.824L176.512 26.5449H176.385C176.157 26.916 175.867 27.2253 175.516 27.4727C175.164 27.7135 174.773 27.8926 174.344 28.0098C173.914 28.1335 173.462 28.1953 172.986 28.1953C172.173 28.1953 171.476 28.0586 170.896 27.7852C170.324 27.5052 169.884 27.0755 169.578 26.4961C169.272 25.9167 169.119 25.168 169.119 24.25V17.1895H171.424V23.8203C171.424 24.6602 171.593 25.2884 171.932 25.7051C172.277 26.1217 172.811 26.3301 173.533 26.3301C174.23 26.3301 174.783 26.1868 175.193 25.9004C175.604 25.6139 175.893 25.1908 176.062 24.6309C176.238 24.071 176.326 23.3841 176.326 22.5703V17.1895H178.631ZM185.545 26.3398C185.845 26.3398 186.141 26.3138 186.434 26.2617C186.727 26.2031 186.994 26.1348 187.235 26.0566V27.7949C186.981 27.9056 186.652 28 186.248 28.0781C185.845 28.1562 185.425 28.1953 184.989 28.1953C184.377 28.1953 183.827 28.0944 183.338 27.8926C182.85 27.6842 182.463 27.3294 182.176 26.8281C181.89 26.3268 181.746 25.6335 181.746 24.748V18.9375H180.272V17.9121L181.854 17.1016L182.606 14.7871H184.051V17.1895H187.147V18.9375H184.051V24.7188C184.051 25.2656 184.188 25.6725 184.461 25.9395C184.735 26.2064 185.096 26.3398 185.545 26.3398ZM191.327 17.1895V28H189.032V17.1895H191.327ZM190.194 13.0488C190.546 13.0488 190.848 13.1432 191.102 13.332C191.363 13.5208 191.493 13.8464 191.493 14.3086C191.493 14.7643 191.363 15.0898 191.102 15.2852C190.848 15.474 190.546 15.5684 190.194 15.5684C189.83 15.5684 189.52 15.474 189.266 15.2852C189.019 15.0898 188.895 14.7643 188.895 14.3086C188.895 13.8464 189.019 13.5208 189.266 13.332C189.52 13.1432 189.83 13.0488 190.194 13.0488ZM203.788 22.5703C203.788 23.4688 203.671 24.2663 203.437 24.9629C203.202 25.6595 202.861 26.2487 202.411 26.7305C201.962 27.2057 201.422 27.5703 200.79 27.8242C200.159 28.0716 199.446 28.1953 198.652 28.1953C197.909 28.1953 197.229 28.0716 196.611 27.8242C195.992 27.5703 195.455 27.2057 194.999 26.7305C194.55 26.2487 194.202 25.6595 193.954 24.9629C193.707 24.2663 193.583 23.4688 193.583 22.5703C193.583 21.3789 193.788 20.3698 194.198 19.543C194.615 18.7096 195.208 18.0749 195.976 17.6387C196.744 17.2025 197.659 16.9844 198.72 16.9844C199.716 16.9844 200.595 17.2025 201.357 17.6387C202.118 18.0749 202.714 18.7096 203.144 19.543C203.573 20.3763 203.788 21.3854 203.788 22.5703ZM195.946 22.5703C195.946 23.3581 196.041 24.0319 196.23 24.5918C196.425 25.1517 196.724 25.5814 197.128 25.8809C197.532 26.1738 198.053 26.3203 198.691 26.3203C199.329 26.3203 199.849 26.1738 200.253 25.8809C200.657 25.5814 200.953 25.1517 201.142 24.5918C201.331 24.0319 201.425 23.3581 201.425 22.5703C201.425 21.7826 201.331 21.1152 201.142 20.5684C200.953 20.015 200.657 19.5951 200.253 19.3086C199.849 19.0156 199.325 18.8691 198.681 18.8691C197.73 18.8691 197.037 19.1882 196.601 19.8262C196.165 20.4642 195.946 21.3789 195.946 22.5703ZM211.66 16.9844C212.877 16.9844 213.824 17.3001 214.502 17.9316C215.185 18.5566 215.527 19.5625 215.527 20.9492V28H213.232V21.3789C213.232 20.5391 213.06 19.9108 212.714 19.4941C212.369 19.071 211.836 18.8594 211.113 18.8594C210.065 18.8594 209.336 19.1816 208.925 19.8262C208.522 20.4707 208.32 21.4049 208.32 22.6289V28H206.025V17.1895H207.812L208.134 18.6543H208.261C208.496 18.2767 208.785 17.9674 209.13 17.7266C209.482 17.4792 209.873 17.2936 210.302 17.1699C210.739 17.0462 211.191 16.9844 211.66 16.9844ZM222.578 16.9844C223.945 16.9844 224.977 17.2871 225.674 17.8926C226.377 18.498 226.729 19.4421 226.729 20.7246V28H225.098L224.658 26.4668H224.58C224.274 26.8574 223.958 27.1797 223.633 27.4336C223.307 27.6875 222.93 27.8763 222.5 28C222.077 28.1302 221.559 28.1953 220.947 28.1953C220.303 28.1953 219.727 28.0781 219.219 27.8438C218.711 27.6029 218.311 27.2383 218.018 26.75C217.725 26.2617 217.578 25.6432 217.578 24.8945C217.578 23.7812 217.992 22.9447 218.818 22.3848C219.652 21.8249 220.908 21.5156 222.588 21.457L224.463 21.3887V20.8223C224.463 20.0736 224.287 19.5397 223.936 19.2207C223.59 18.9017 223.102 18.7422 222.471 18.7422C221.93 18.7422 221.406 18.8203 220.898 18.9766C220.391 19.1328 219.896 19.3249 219.414 19.5527L218.672 17.9316C219.199 17.6517 219.798 17.4238 220.469 17.248C221.146 17.0723 221.849 16.9844 222.578 16.9844ZM224.453 22.834L223.057 22.8828C221.911 22.9219 221.107 23.1172 220.645 23.4688C220.182 23.8203 219.951 24.3021 219.951 24.9141C219.951 25.4479 220.111 25.8385 220.43 26.0859C220.749 26.3268 221.169 26.4473 221.689 26.4473C222.484 26.4473 223.141 26.2227 223.662 25.7734C224.189 25.3177 224.453 24.6504 224.453 23.7715V22.834ZM231.846 28H229.541V12.8047H231.846V28Z" fill="white"/>
<line x1="105.501" x2="105.501" y2="41" stroke="white"/>
</svg>
